<svg xmlns="http://www.w3.org/2000/svg" viewBox="0 0 100 99.9">
    <path fill="currentColor" d="M38.1 53.6L38.1 53.6L8.8 88.3L11.3 90.8L43.4 58.8L38.1 53.6ZM33.0 47.6L33.0 47.6L30.5 39.7L15.2 60.4L16.3 64.1L33.0 47.6ZM90.3 11.7L90.3 11.7Q88.1 11.2 85.5 11.0Q83.0 10.7 80.4 10.7L80.4 10.7Q75.1 10.7 70.1 11.8L70.1 11.8Q65.1 12.8 60.5 14.7Q56.0 16.6 51.9 19.3L51.9 19.3Q47.8 22.1 44.2 25.5L44.2 25.5L44.2 25.5L35.4 34.4Q34.1 35.7 34.8 38.4L34.8 38.4Q35.4 41.0 37.3 44.1Q39.1 47.3 41.5 50.4L41.5 50.4Q44.0 53.4 46.3 55.8L46.3 55.8Q47.8 57.2 49.4 58.6Q51.0 60.0 52.7 61.2L52.7 61.2L52.8 61.3L67.9 44.1L70.7 47.0L35.0 88.7L37.1 90.6L61.3 66.4Q63.5 67.3 65.1 67.4Q66.8 67.6 67.8 66.6L67.8 66.6L76.7 57.8Q80.0 54.3 82.7 50.2L82.7 50.2Q85.4 46.0 87.4 41.4Q89.3 36.8 90.2 31.8L90.2 31.8Q91.2 26.9 91.2 21.6L91.2 21.6Q91.2 18.9 91.0 16.4Q90.7 13.9 90.2 11.4L90.2 11.4L90.3 11.7ZM50.1 38.5L50 38.6Q49.2 37.0 48.1 35.9Q47.0 34.8 47.2 33.3L47.2 33.3Q53.3 27.2 58.3 23.9L58.3 23.9Q63.4 20.5 67.6 18.8Q71.9 17.1 75.5 16.6L75.5 16.6Q79.1 16.1 82.4 15.7L82.4 15.7Q77.6 17.8 73.2 20.3L73.2 20.3Q68.8 22.8 64.8 25.6Q60.7 28.4 57.0 31.7L57.0 31.7Q53.4 35.0 50.1 38.5L50.1 38.5Z"/>
</svg>
