<svg xmlns="http://www.w3.org/2000/svg" viewBox="-22 -13 120 120">
    <path fill="currentColor" d="M49.5 84.1L49.5 84.1L1.7 84.1L1.7 9.1L76.7 9.1L76.7 39.6L73.5 39.6L73.5 29.4L56.3 29.4L56.3 12.2L39.2 12.2L39.2 29.4L21.9 29.4L21.9 12.2L4.8 12.2L4.8 29.4L21.9 29.4L21.9 46.6L4.8 46.6L4.8 63.8L21.9 63.8L21.9 81.0L39.2 81.0L39.2 63.8L45.9 63.8Q45.4 67.3 45.4 69.2L45.4 69.2Q45.4 75 47.8 80.8L47.8 80.8Q48.2 81.8 49.5 84.1L49.5 84.1ZM21.9 46.6L21.9 46.6L39.2 46.6L39.2 63.8L21.9 63.8L21.9 46.6ZM39.2 29.4L39.2 29.4L56.3 29.4L56.3 46.4Q56.2 46.4 55.9 46.6L55.9 46.6L39.2 46.6L39.2 29.4ZM53.5 60.2L53.5 60.2Q55.1 56.3 58.5 52.7L58.5 52.7Q61.9 49.4 66.0 47.8L66.0 47.8Q70.4 45.9 75 45.9L75 45.9Q79.9 45.9 84.1 47.8L84.1 47.8Q88.0 49.2 91.5 52.7L91.5 52.7Q94.8 55.9 96.5 60.2L96.5 60.2Q98.3 64.4 98.3 69.2L98.3 69.2Q98.3 74.1 96.5 78.2L96.5 78.2Q95.0 82.1 91.5 85.6L91.5 85.6Q88.1 89.0 84.1 90.7L84.1 90.7Q79.6 92.5 75 92.5L75 92.5Q70.2 92.5 66.0 90.7L66.0 90.7Q61.9 89.0 58.5 85.7L58.5 85.7Q55.3 82.4 53.5 78.2L53.5 78.2Q51.8 73.7 51.8 69.2L51.8 69.2Q51.8 64.6 53.5 60.2L53.5 60.2ZM61.0 72.3L61.0 72.3Q61.2 72.7 61.7 72.7L61.7 72.7L71.6 72.7L71.6 82.5Q71.6 83.0 72.0 83.2L72.0 83.2Q72.3 83.5 72.7 83.5L72.7 83.5L77.3 83.5Q77.6 83.5 78.1 83.2L78.1 83.2Q78.4 82.7 78.4 82.5L78.4 82.5L78.4 72.7L88.4 72.7Q89.4 72.7 89.4 71.6L89.4 71.6L89.4 66.9Q89.4 65.6 88.4 65.9L88.4 65.9L78.4 65.9L78.4 55.9Q78.4 54.9 77.3 54.9L77.3 54.9L72.7 54.9Q71.6 54.9 71.6 55.9L71.6 55.9L71.6 65.9L61.7 65.9Q61.5 65.9 61.0 66.1L61.0 66.1Q60.7 66.6 60.7 66.9L60.7 66.9L60.7 71.6Q60.7 72.0 61.0 72.3L61.0 72.3Z"/>
</svg>
