<svg xmlns="http://www.w3.org/2000/svg" viewBox="0 0 100 99.9">
    <path fill="currentColor" d="M58.3 60.6L58.3 60.6L58.3 48.9Q59.6 47.9 61.1 47.2Q62.7 46.6 64.5 46.6L64.5 46.6L64.5 46.6Q66.1 46.6 67.5 47.4Q68.9 48.2 68.9 50.3L68.9 50.3Q68.9 51.6 67.8 53.1Q66.6 54.6 64.7 56.5L64.7 56.5Q63.9 57.5 62.9 58.5Q61.9 59.6 60.9 60.7L60.9 60.7Q60.4 60.7 59.7 60.7Q59.0 60.6 58.3 60.6L58.3 60.6ZM64.5 42.8L64.5 42.8Q61.7 43.0 59.3 44.0Q56.9 45.1 55.1 47.0L55.1 47.0L55.1 47.0L54.5 47.5L54.5 64.5L56.2 64.5Q57.0 64.5 59.3 64.6Q61.6 64.7 61.7 64.7L61.7 64.7L62.6 64.7L63.1 64.0Q64.3 62.7 65.3 61.5Q66.4 60.3 67.3 59.2L67.3 59.2Q69.4 56.8 71.0 54.8Q72.6 52.7 72.6 50.3L72.6 50.3Q72.6 47.2 70.3 45.0Q68.1 42.8 64.9 42.8L64.9 42.8Q64.8 42.8 64.7 42.8Q64.6 42.8 64.5 42.8L64.5 42.8ZM35.4 46.6L35.4 46.6Q37.1 46.6 38.7 47.2Q40.2 47.9 41.5 48.9L41.5 48.9L41.5 48.9L41.5 60.6Q40.8 60.6 40.2 60.6Q39.6 60.6 39.0 60.6L39.0 60.6Q37.9 59.5 37.0 58.4Q36.0 57.4 35.1 56.5L35.1 56.5Q33.2 54.5 32.1 53.0Q31.0 51.6 31.0 50.3L31.0 50.3Q31.0 48.2 32.4 47.4Q33.9 46.6 35.4 46.6L35.4 46.6ZM35.4 42.8L35.4 42.8Q35.2 42.8 35.0 42.8Q34.8 42.8 34.6 42.8L34.6 42.8Q31.4 42.8 29.2 45.0Q27.1 47.2 27.0 50.3L27.0 50.3L27.0 50.3Q27.0 52.7 28.5 54.8Q30.1 56.8 32.2 59.2L32.2 59.2Q33.3 60.2 34.4 61.4Q35.4 62.6 36.4 64.0L36.4 64.0L36.9 64.6L37.8 64.6Q37.8 64.6 40.4 64.6Q43.0 64.5 43.8 64.5L43.8 64.5L45.5 64.5L45.5 47.3L44.8 46.8Q43.1 45.0 40.7 43.9Q38.3 42.9 35.5 42.8L35.5 42.8L35.4 42.8ZM74.5 63.6L74.3 63.7Q72.3 65.5 70.5 67.6Q68.7 69.7 67.2 72.1L67.2 72.1L67.1 72.3Q67.0 72.5 66.9 72.6Q66.8 72.8 66.7 72.9L66.7 72.9L66.7 72.9Q66.7 72.9 66.7 72.8Q66.7 72.8 66.7 72.8L66.7 72.8Q62.9 72.4 58.6 72.1Q54.4 71.9 50 71.9L50 71.9Q45.6 71.9 41.3 72.1Q36.9 72.4 32.6 72.9L32.6 72.9L33.3 72.8Q33.3 72.8 33.3 72.8Q33.3 72.8 33.3 72.8L33.3 72.8Q33.3 72.8 33.3 72.6Q33.3 72.5 33.1 72.3L33.1 72.3L33.1 72.3Q31.5 69.8 29.7 67.7Q27.9 65.5 25.9 63.7L25.9 63.7L25.8 63.7Q24.3 62.2 22.9 60.6Q21.5 59.0 20.2 57.3L20.2 57.3L20.1 57.1Q18.9 55.6 18.3 53.7Q17.7 51.8 17.7 49.7L17.7 49.7L17.7 49.7Q17.7 49.4 17.7 49.2Q17.7 48.9 17.7 48.6L17.7 48.6Q17.7 43.0 21.6 39.0Q25.6 35.1 31.3 35.1L31.3 35.1Q31.3 35.1 31.3 35.1Q31.3 35.1 31.3 35.1L31.3 35.1L31.3 35.1Q34.7 35.1 37.8 35.7Q41.0 36.4 43.8 37.8L43.8 37.8L43.7 37.7L45.5 38.7L48.5 26.2L41.7 26.2L41.7 22.2L47.9 22.2L47.9 15.9L52.1 15.9L52.1 22.2L58.3 22.2L58.3 26.1L51.5 26.1L54.2 36.6L54.7 39.0L56.5 37.8Q59.3 36.5 62.4 35.8Q65.4 35.1 68.8 35.1L68.8 35.1L68.8 35.1Q68.8 35.1 69.0 35.1Q69.1 35.1 69.2 35.1L69.2 35.1Q74.9 35.1 78.9 39.0Q82.8 43.0 82.8 48.6L82.8 48.6Q82.8 48.8 82.8 49.1Q82.8 49.3 82.8 49.6L82.8 49.6L82.8 49.5Q82.8 51.7 82.2 53.6Q81.5 55.5 80.4 57.1L80.4 57.1L80.4 57.0Q79.0 58.8 77.5 60.4Q76.1 62.0 74.5 63.5L74.5 63.5L74.5 63.6ZM73.6 85.5L26.4 85.8Q26.4 85.5 26.3 85.2Q26.3 84.9 26.3 84.6L26.3 84.6Q26.3 83.3 26.5 82.1Q26.8 80.9 27.1 79.7L27.1 79.7L27.1 79.8Q27.5 78.9 28.6 78.1Q29.7 77.2 32.6 76.7L32.6 76.7L33.0 76.7Q33.1 76.7 33.2 76.7Q33.3 76.8 33.4 76.8L33.4 76.8Q33.6 76.8 33.7 76.7Q33.8 76.7 33.9 76.7L33.9 76.7L33.9 76.7Q37.4 76.2 41.5 75.9Q45.6 75.6 49.9 75.6L49.9 75.6L50 75.6Q50.1 75.6 50.1 75.6Q50.2 75.6 50.3 75.6L50.3 75.6Q54.5 75.6 58.6 75.8Q62.7 76.0 66.8 76.5L66.8 76.5L66.1 76.5Q66.2 76.5 66.3 76.5Q66.4 76.5 66.6 76.5L66.6 76.5Q66.7 76.5 66.8 76.5Q66.9 76.5 67.0 76.4L67.0 76.4L67.0 76.5L67.4 76.5Q69.1 76.5 70.6 77.3Q72.0 78.2 72.9 79.5L72.9 79.5L72.9 79.6Q73.2 80.6 73.4 81.8Q73.6 83.0 73.6 84.3L73.6 84.3Q73.6 84.6 73.6 84.9Q73.6 85.3 73.6 85.6L73.6 85.6L73.6 85.5ZM77.1 66.2L77.1 66.2Q80.5 62.8 83.4 59.0Q86.3 55.2 86.3 49.5L86.3 49.5Q86.4 49.3 86.4 49.1Q86.4 48.8 86.4 48.5L86.4 48.5Q86.4 41.3 81.3 36.2Q76.2 31.2 68.9 31.2L68.9 31.2Q68.8 31.2 68.8 31.2Q68.7 31.2 68.6 31.2L68.6 31.2L68.7 31.2Q68.6 31.2 68.6 31.2Q68.6 31.2 68.5 31.2L68.5 31.2Q65.4 31.2 62.5 31.7Q59.5 32.2 56.7 33.3L56.7 33.3L57.0 33.2L56.3 29.6L62.0 29.6L62.0 18.7L55.8 18.7L55.8 12.2L44.2 12.2L44.2 18.7L38.0 18.7L38.0 29.8L43.8 29.8L43.0 33.3Q40.4 32.3 37.5 31.7Q34.6 31.2 31.4 31.2L31.4 31.2L31.3 31.2Q31.3 31.2 31.2 31.2Q31.2 31.2 31.1 31.2L31.1 31.2Q23.8 31.2 18.7 36.2Q13.6 41.3 13.6 48.5L13.6 48.5Q13.6 48.7 13.6 49.0Q13.6 49.2 13.7 49.4L13.7 49.4L13.6 49.4Q13.6 55.0 16.6 58.8Q19.5 62.6 22.9 66.0L22.9 66.0Q24.6 67.8 26.1 69.6Q27.6 71.5 29.0 73.5L29.0 73.5L29.2 73.6Q27.3 74.1 25.9 75.3Q24.5 76.5 23.7 78.1L23.7 78.1L23.7 78.1Q23.1 79.7 22.8 81.4Q22.5 83.1 22.5 85.0L22.5 85.0Q22.5 85.4 22.5 85.7Q22.5 86.1 22.5 86.5L22.5 86.5L22.5 86.5L22.5 89.5L77.5 89.5L77.5 86.6Q77.5 86.2 77.5 85.8Q77.5 85.4 77.5 85.1L77.5 85.1Q77.5 83.2 77.2 81.4Q76.9 79.7 76.2 78.1L76.2 78.1L76.3 78.2Q75.5 76.6 74.1 75.4Q72.7 74.2 70.9 73.7L70.9 73.7L70.8 73.6Q72.3 71.6 73.8 69.7Q75.4 67.9 77.1 66.2L77.1 66.2L77.1 66.2Z"/>
</svg>
