<svg xmlns="http://www.w3.org/2000/svg" viewBox="0 0 100 99.9">
    <path fill="currentColor" d="M55.8 77.5L55.8 77.5Q55.0 76.8 54.0 76.8L54.0 76.8L38.8 76.8Q37.7 76.8 37.0 77.5L37.0 77.5Q36.2 78.2 36.2 79.3L36.2 79.3L36.2 93.9Q36.2 95.0 37.0 95.8L37.0 95.8Q37.5 96.7 38.8 96.7L38.8 96.7L54.0 96.7Q55.0 96.7 55.8 95.9L55.8 95.9Q56.5 95.1 56.5 93.9L56.5 93.9L56.5 79.3Q56.5 78.2 55.8 77.5L55.8 77.5ZM25.1 17.3L33.1 27.1Q33.7 27.8 34.8 27.9L34.8 27.9Q35.9 27.9 36.7 27.5L36.7 27.5L37.6 26.9Q38.7 26.1 39.9 25.4L39.9 25.4Q41.7 24.5 43.3 24.0L43.3 24.0Q44.9 23.3 47.2 23.3L47.2 23.3Q50.7 23.3 53.0 25.3L53.0 25.3Q55.5 27.1 55.5 30.2L55.5 30.2Q55.5 33.5 53.4 35.6L53.4 35.6Q52.1 37.0 48.2 40.7L48.2 40.7Q45.7 42.8 44.2 44.1L44.2 44.1Q42.0 46.5 40.7 48.5L40.7 48.5Q39.1 51.0 38.0 53.9L38.0 53.9Q37.0 56.4 37.0 60.6L37.0 60.6L37.0 63.5Q37.0 64.5 37.7 65.2L37.7 65.2Q38.5 66.0 39.6 66.0L39.6 66.0L53.3 66.0Q54.3 66.0 55.1 65.2L55.1 65.2Q55.9 64.5 55.9 63.5L55.9 63.5L55.9 61.6Q55.9 58.3 58.0 56.1L58.0 56.1Q59.3 54.7 63.3 51.0L63.3 51.0Q65.4 49.1 67.5 47.1L67.5 47.1Q69.9 44.5 71.3 42.3L71.3 42.3Q72.9 39.8 74.2 36.4L74.2 36.4Q75.4 33.1 75.4 28.7L75.4 28.7Q75.4 22.9 73.1 18.4L73.1 18.4Q70.5 14.0 66.9 11.1L66.9 11.1Q62.6 7.9 58.0 6.5L58.0 6.5Q53.3 5.0 48.3 5.0L48.3 5.0Q43.3 5.0 38.8 6.3L38.8 6.3Q34.6 7.6 31.4 9.5L31.4 9.5Q28.7 10.9 27.1 12.4L27.1 12.4Q25.5 13.7 25.4 14.1L25.4 14.1Q24.6 14.8 24.6 15.7L24.6 15.7Q24.6 16.6 25.1 17.3L25.1 17.3Z"/>
</svg>
