<svg xmlns="http://www.w3.org/2000/svg" viewBox="0 0 100 99.9">
    <path fill="currentColor" d="M55.0 21.9L55.0 21.9L55.0 18.7L60.8 18.7L60.8 9.2L39.2 9.2L39.2 18.7L45.0 18.7L45.0 21.9Q38.6 22.8 33.0 25.9L33.0 25.9Q27.4 29.0 23.3 33.6Q19.2 38.3 16.9 44.2L16.9 44.2Q14.6 50.3 14.6 56.9L14.6 56.9Q14.6 64.3 17.4 70.7L17.4 70.7Q20.1 77.1 25.0 82.0Q29.8 86.8 36.2 89.6L36.2 89.6Q42.7 92.4 50 92.4L50 92.4Q57.3 92.4 63.8 89.6L63.8 89.6Q70.2 86.8 75.0 82.0Q79.9 77.1 82.6 70.7L82.6 70.7Q85.4 64.3 85.4 56.9L85.4 56.9Q85.4 50.3 83.1 44.2L83.1 44.2Q80.8 38.3 76.7 33.6Q72.7 29.0 67.1 25.9L67.1 25.9Q61.5 22.9 55.2 21.9L55.2 21.9L55.0 21.9ZM50 80.7L50 80.7Q50 80.7 50 80.7Q50 80.7 50 80.7L50 80.7Q45.0 80.7 40.7 78.8L40.7 78.8Q36.3 77.0 33.1 73.7Q29.9 70.5 28.0 66.1L28.0 66.1Q26.2 61.8 26.2 56.9L26.2 56.9Q26.2 52.0 28.0 47.7L28.0 47.7Q29.9 43.3 33.1 40.0Q36.3 36.8 40.7 35.0L40.7 35.0Q45.0 33.1 50 33.1L50 33.1Q54.9 33.1 59.2 35.0L59.2 35.0Q63.6 36.8 66.8 40.0Q70.0 43.3 71.9 47.7L71.9 47.7Q73.7 52.0 73.7 56.9L73.7 56.9L73.7 56.9Q73.7 56.9 73.7 56.9Q73.7 56.9 73.7 56.9L73.7 56.9Q73.7 61.8 71.9 66.1L71.9 66.1Q70.0 70.5 66.8 73.7Q63.6 77.0 59.3 78.8L59.3 78.8Q54.9 80.7 50 80.7L50 80.7L50 80.7ZM46.9 41.0L46.9 41.0L43.8 60.3L50 66.3L56.3 60.3L53.1 41.0L46.9 41.0Z"/>
</svg>
