<svg xmlns="http://www.w3.org/2000/svg" viewBox="0 0 100 99.9">
    <path d="M37.5 68.1L44.3 68.1L44.8 68.8Q44.9 68.9 45.1 69.1Q45.2 69.3 45.4 69.5L45.4 69.5L45.4 69.5L55.3 80.6L28.1 80.6Q28.1 80.6 28.1 80.6Q28.0 80.6 28.0 80.6L28.0 80.6Q27.4 80.6 26.9 80.3Q26.3 80.1 25.9 79.6L25.9 79.6L25.9 79.6Q25.5 79.2 25.2 78.7Q25 78.1 25 77.4L25 77.4Q25 77.4 25 77.4Q25 77.4 25 77.4L25 77.4L25 77.4L25 41.4L15.2 41.4Q14.2 41.4 13.5 41.1Q12.9 40.8 12.6 40.2L12.6 40.2Q12.4 39.6 12.6 38.9Q12.9 38.2 13.7 37.3L13.7 37.3L28.8 20.6Q29.2 20.1 29.8 19.8Q30.5 19.5 31.2 19.5L31.2 19.5Q31.2 19.5 31.2 19.5Q31.3 19.5 31.3 19.5L31.3 19.5L31.3 19.5Q31.3 19.5 31.3 19.5Q31.3 19.5 31.3 19.5L31.3 19.5Q32.0 19.5 32.7 19.9Q33.3 20.2 33.8 20.7L33.8 20.7L33.8 20.7L48.8 37.4Q49.6 38.2 49.9 39.0Q50.2 39.7 49.9 40.3L49.9 40.3Q49.7 40.9 49.0 41.2Q48.3 41.5 47.3 41.5L47.3 41.5L37.5 41.5L37.5 68.1ZM75 60.2L84.8 60.2Q85.8 60.2 86.5 60.5Q87.1 60.8 87.4 61.4L87.4 61.4Q87.6 62.0 87.4 62.7Q87.1 63.5 86.2 64.4L86.2 64.4L71.2 81.0Q70.8 81.5 70.2 81.8Q69.5 82.1 68.8 82.1L68.8 82.1Q68.8 82.1 68.8 82.1Q68.8 82.1 68.8 82.1L68.8 82.1L68.8 82.1Q68.8 82.1 68.8 82.1Q68.8 82.1 68.7 82.1L68.7 82.1Q68.0 82.1 67.3 81.8Q66.7 81.5 66.2 81.0L66.2 81.0L66.2 81.0L51.2 64.4Q50.4 63.5 50.1 62.7Q49.8 62.0 50.1 61.4L50.1 61.4Q50.3 60.8 51.0 60.5Q51.7 60.2 52.7 60.2L52.7 60.2L62.5 60.2L62.5 33.7L55.7 33.7L55.2 32.9Q55.1 32.6 54.9 32.4Q54.8 32.2 54.6 32.0L54.6 32.0L54.6 32.0L44.7 21.2L71.9 21.2Q72.6 21.2 73.1 21.4Q73.6 21.7 74.1 22.1L74.1 22.1L74.1 22.1Q74.5 22.5 74.8 23.0Q75 23.5 75 24.2L75 24.2Q75 24.2 75 24.3Q75 24.3 75 24.3L75 24.3L75 24.3L75 60.2Z"/>
</svg>
